# Blender 3.6.0
# www.blender.org
mtllib 3_2x.mtl
o 3_2x
v 2.984897 5.356663 0.261219
v 1.123410 2.083810 0.261219
v 1.932750 5.749142 0.261219
v 1.713233 1.884244 0.261219
v -0.444279 6.050703 0.261219
v 2.984897 5.356663 0.036155
v 3.899567 4.779036 0.261219
v 3.899567 4.779036 0.036155
v 1.123410 2.083810 0.036155
v -0.519672 2.242352 0.036155
v -0.519672 2.242352 0.261219
v 1.932750 5.749142 0.036155
v 2.150057 1.605964 0.261219
v 1.713233 1.884244 0.036155
v -2.190468 5.938728 0.261219
v -2.190468 5.938728 0.036155
v -0.444279 6.050703 0.036155
v 7.734529 11.473309 0.036154
v 5.338648 12.753845 0.036154
v 4.646827 4.019586 0.036155
v 4.646827 4.019586 0.261219
v 9.834392 9.749298 0.036154
v 2.869596 -0.502764 0.036155
v -1.788012 2.171399 0.036155
v -3.833546 -0.519395 0.036155
v -1.788012 2.171399 0.261219
v 2.738767 13.542124 0.036154
v 2.464921 1.235664 0.261219
v 2.150057 1.605964 0.036155
v -3.494288 5.602793 0.261219
v -2.669419 13.542124 0.036154
v -3.494288 5.602793 0.036155
v -5.269300 12.753845 0.036154
v 0.034675 13.808211 0.036154
v 5.338648 12.753845 1.256822
v 7.734529 11.473309 1.256822
v 9.834392 9.749298 1.256822
v 5.196737 3.083848 0.036155
v 11.558402 7.649438 0.036154
v 5.196737 3.083848 0.261219
v 11.558402 7.649438 1.256822
v 2.869596 -1.448480 0.261219
v 2.869596 -0.502764 0.261219
v 2.689990 0.761141 0.036155
v 2.869596 -1.448480 0.036155
v 2.464921 1.235664 0.036155
v -2.649465 1.957422 0.036155
v -3.768135 0.497276 0.036155
v -3.833546 -0.519395 0.261219
v -3.768135 0.497276 0.261219
v -3.833546 -1.448480 0.036155
v -2.649465 1.957422 0.261219
v 2.738767 13.542124 1.256822
v 2.689990 0.761141 0.261219
v 5.535995 1.898659 0.261219
v -4.491002 5.068406 0.261219
v 0.034675 13.808211 1.256822
v -2.669419 13.542124 1.256822
v -4.491002 5.068406 0.036155
v -7.665181 11.473309 0.036154
v -5.269300 12.753845 1.256822
v -0.401041 4.942011 1.256823
v 5.657953 4.757974 1.256823
v 7.018313 4.170366 1.256823
v 12.838938 5.253555 0.036155
v 5.535995 1.898659 0.036155
v 12.838938 5.253555 1.256823
v 8.018353 3.213566 1.256823
v 5.647973 0.393057 0.261219
v 5.647973 -5.240197 0.261219
v -3.833546 -1.448480 0.261219
v -3.208245 1.619271 0.036155
v -3.569678 1.171362 0.261219
v -3.569678 1.171362 0.036155
v -6.620795 0.393057 0.261219
v -6.285971 2.652569 0.261219
v -3.208245 1.619271 0.261219
v 5.647973 0.393057 0.036155
v -5.311431 4.359952 0.261219
v -5.311431 4.359952 0.036155
v -9.765042 9.749298 0.036154
v -7.665181 11.473309 1.256822
v -2.304664 3.982999 1.256823
v 0.051303 1.535009 1.256823
v 1.657797 0.975119 1.256823
v 0.051303 1.535009 0.587174
v 4.093588 0.798836 1.256823
v -0.401041 4.942011 0.587174
v 5.081430 1.535009 1.256823
v 7.018313 4.170366 0.587174
v 5.657953 4.757974 0.587174
v 5.081430 1.535009 0.587174
v 13.627214 2.653677 1.256823
v 13.627214 2.653677 0.036155
v 8.633677 1.833249 1.256823
v 8.018353 3.213566 0.587174
v 8.633677 1.833249 0.587174
v -6.620795 -5.240197 0.261219
v 5.647973 -5.240197 0.036155
v -6.620795 -5.240197 0.036155
v -5.921212 3.535089 0.261219
v -6.620795 0.393057 0.036155
v -6.285971 2.652569 0.036155
v -5.921212 3.535089 0.036155
v 12.838938 -5.354393 0.036155
v 13.893305 -0.050418 0.036155
v 13.627214 -2.754515 0.036155
v -11.489055 7.649438 0.036154
v -9.765042 9.749298 1.256822
v -11.489055 7.649438 1.256822
v -7.116379 3.777890 1.256823
v -6.283752 3.555040 1.256823
v -2.304664 3.982999 0.587174
v -3.455485 2.393132 0.587174
v -3.455485 2.393132 1.256823
v -5.672866 2.945263 1.256823
v -1.773601 -0.163506 1.256823
v -1.375579 0.911925 1.256823
v 1.858471 -0.130239 0.587174
v 1.657797 0.975119 0.587174
v 1.858471 -0.130239 1.256823
v -1.375579 0.911925 0.587174
v 4.093588 0.798836 0.587174
v 4.051455 0.355362 0.587174
v 4.051455 0.355362 1.256823
v 6.357534 1.025013 1.256823
v 6.357534 1.025013 0.587174
v 13.893305 -0.050418 1.256823
v 8.838788 -0.021592 1.256823
v 8.838788 -0.021592 0.587174
v 6.721184 0.044926 0.587174
v -2.669419 -13.642959 0.036156
v 11.558402 -7.750277 0.036156
v 0.034675 -13.910156 0.036156
v 9.834392 -9.850134 0.036156
v 2.738767 -13.642959 0.036156
v 7.734529 -11.574147 0.036156
v 5.338648 -12.854684 0.036156
v -12.769590 -5.354393 0.036155
v -11.489055 -7.750277 0.036156
v -9.765042 -9.850134 0.036156
v -7.665181 -11.574147 0.036156
v -5.269300 -12.854684 0.036156
v -13.557870 -2.754515 0.036155
v -13.825065 -0.050418 0.036155
v -13.557870 2.653677 0.036155
v -12.769590 5.253555 0.036155
v 12.838938 -5.354393 1.256823
v 13.627214 -2.754515 1.256823
v -7.950112 3.555040 1.256823
v -8.559895 2.945263 1.256823
v -12.769590 5.253555 1.256823
v -7.116379 3.777890 0.587174
v -5.672866 2.945263 0.587174
v -6.283752 3.555040 0.587174
v -1.773601 -0.163506 0.587174
v -3.849069 -0.247768 0.587174
v -5.672866 1.278904 1.256823
v -3.849069 -0.247768 1.256823
v -5.450017 2.111528 1.256823
v -5.450017 2.111528 0.587174
v -1.271363 -1.306562 1.256823
v 4.478303 -0.762195 0.587174
v 1.390599 -1.323193 1.256823
v 1.390599 -1.323193 0.587174
v 0.067936 -1.762239 1.256823
v 4.478303 -0.762195 1.256823
v 5.490539 -1.210111 1.256823
v 6.721184 0.044926 1.256823
v 6.386361 -0.875283 1.256823
v 8.614827 -2.091520 0.587174
v 8.614827 -2.091520 1.256823
v 6.386361 -0.875283 0.587174
v -2.669419 -13.642959 1.256824
v -5.269300 -12.854684 1.256824
v 0.034675 -13.910156 1.256824
v 11.558402 -7.750277 1.256824
v 9.834392 -9.850134 1.256824
v 2.738767 -13.642959 1.256824
v 5.338648 -12.854684 1.256824
v 7.734529 -11.574147 1.256824
v -12.769590 -5.354393 1.256823
v -13.557870 -2.754515 1.256823
v -11.489055 -7.750277 1.256824
v -9.765042 -9.850134 1.256824
v -7.665181 -11.574147 1.256824
v -13.825065 -0.050418 1.256823
v -13.557870 2.653677 1.256823
v 7.942961 -3.495116 1.256823
v -7.950112 3.555040 0.587174
v -8.559895 2.945263 0.587174
v -8.782742 2.111528 1.256823
v -7.116379 0.445163 0.587174
v -6.283752 0.668010 0.587174
v -5.672866 1.278904 0.587174
v -3.716024 -1.797715 0.587174
v -1.271363 -1.306562 0.587174
v -3.716024 -1.797715 1.256823
v -6.283752 0.668010 1.256823
v -6.283752 -0.325374 1.256823
v -5.450017 -1.768886 1.256823
v -5.672866 -0.935154 1.256823
v 0.067936 -1.762239 0.587174
v 5.490539 -1.210111 0.587174
v 3.122377 -2.817706 0.587174
v 2.712162 -3.905339 0.587174
v 7.942961 -3.495116 0.587174
v 6.932946 -4.298920 0.587174
v -1.802427 -4.633747 1.256823
v 0.251977 -5.194738 1.256823
v 6.932946 -4.298920 1.256823
v 1.720991 -4.855480 1.256823
v 2.712162 -3.905339 1.256823
v 4.252132 -4.131509 1.256823
v 5.692321 -4.566118 1.256823
v -8.559895 -2.601513 1.256823
v -8.782742 -1.768886 1.256823
v -7.950112 -3.212407 1.256823
v -7.116379 -3.435254 1.256823
v -6.283752 -3.212407 1.256823
v -3.318007 -3.018384 1.256823
v -2.672749 -3.949678 1.256823
v -8.559895 1.278904 1.256823
v -8.559895 -0.935154 1.256823
v -8.782742 2.111528 0.587174
v -7.116379 0.445163 1.256823
v -8.559895 1.278904 0.587174
v -7.950112 0.668010 0.587174
v -3.318007 -3.018384 0.587174
v -2.672749 -3.949678 0.587174
v -5.672866 -2.601513 1.256823
v -7.116379 -0.102527 1.256823
v -5.672866 -0.935154 0.587174
v -6.283752 -0.325374 0.587174
v -5.672866 -2.601513 0.587174
v -5.450017 -1.768886 0.587174
v -1.802427 -4.633747 0.587174
v 0.251977 -5.194738 0.587174
v 1.720991 -4.855480 0.587174
v 5.692321 -4.566118 0.587174
v 4.252132 -4.131509 0.587174
v 3.122377 -2.817706 1.256823
v -8.559895 -2.601513 0.587174
v -8.782742 -1.768886 0.587174
v -8.559895 -0.935154 0.587174
v -7.950112 -3.212407 0.587174
v -7.116379 -3.435254 0.587174
v -6.283752 -3.212407 0.587174
v -7.950112 0.668010 1.256823
v -7.950112 -0.325374 0.587174
v -7.950112 -0.325374 1.256823
v -7.116379 -0.102527 0.587174
vn -0.0000 -0.0000 -1.0000
vn -0.3495 -0.9369 -0.0000
vn -0.5340 -0.8455 -0.0000
vn 0.3205 0.9472 -0.0000
vn 0.0960 0.9954 -0.0000
vn -0.1259 -0.9920 -0.0000
vn 0.5373 0.8434 -0.0000
vn 0.0640 -0.9980 -0.0000
vn -0.7128 -0.7014 -0.0000
vn -0.0559 0.9984 -0.0000
vn 0.7618 0.6478 -0.0000
vn 0.2495 -0.9684 -0.0000
vn 0.4714 0.8819 -0.0000
vn 0.6345 0.7729 -0.0000
vn 0.2902 0.9570 -0.0000
vn -0.8621 -0.5067 -0.0000
vn 0.7729 0.6345 -0.0000
vn 1.0000 -0.0000 -0.0000
vn 0.9901 0.1407 -0.0000
vn -0.2411 0.9705 -0.0000
vn -0.9979 0.0642 -0.0000
vn -1.0000 -0.0000 -0.0000
vn 0.0979 0.9952 -0.0000
vn 0.9035 0.4285 -0.0000
vn 0.4725 -0.8813 -0.0000
vn -0.0979 0.9952 -0.0000
vn -0.2902 0.9570 -0.0000
vn -0.4714 0.8819 -0.0000
vn -0.0000 -0.0000 1.0000
vn -0.9614 -0.2752 -0.0000
vn 0.8819 0.4714 -0.0000
vn -0.0000 -1.0000 -0.0000
vn -0.5177 0.8555 -0.0000
vn -0.9593 0.2824 -0.0000
vn -0.9972 -0.0742 -0.0000
vn 0.6536 -0.7569 -0.0000
vn -0.6345 0.7729 -0.0000
vn -0.9913 -0.1316 -0.0000
vn 0.4499 -0.8931 -0.0000
vn -0.3965 -0.9180 -0.0000
vn 0.9844 -0.1761 -0.0000
vn -0.6913 -0.7226 -0.0000
vn 0.9570 0.2902 -0.0000
vn -0.9134 -0.4072 -0.0000
vn -0.0000 1.0000 -0.0000
vn -0.7782 0.6280 -0.0000
vn 0.9892 -0.1466 -0.0000
vn 0.9242 -0.3820 -0.0000
vn 0.8041 -0.5945 -0.0000
vn -0.7729 0.6345 -0.0000
vn 0.8101 -0.5864 -0.0000
vn -0.4002 0.9164 -0.0000
vn 0.9839 0.1786 -0.0000
vn -0.0722 -0.9974 -0.0000
vn -0.9955 0.0946 -0.0000
vn 0.3711 0.9286 -0.0000
vn 0.9952 0.0979 -0.0000
vn -0.9939 -0.1099 -0.0000
vn 0.8819 -0.4714 -0.0000
vn 0.9570 -0.2902 -0.0000
vn 0.9952 -0.0979 -0.0000
vn -0.8819 0.4714 -0.0000
vn -0.2585 -0.9660 -0.0000
vn 0.2582 -0.9661 -0.0000
vn -0.7065 -0.7077 -0.0000
vn 0.9891 -0.1474 -0.0000
vn -0.9661 -0.2582 -0.0000
vn -0.9155 -0.4023 -0.0000
vn -0.9378 0.3471 -0.0000
vn 0.9310 -0.3651 -0.0000
vn -0.9342 -0.3568 -0.0000
vn 0.9375 0.3479 -0.0000
vn -0.9942 0.1076 -0.0000
vn 0.9397 -0.3419 -0.0000
vn -0.2902 -0.9570 -0.0000
vn -0.0983 -0.9952 -0.0000
vn 0.7729 -0.6345 -0.0000
vn 0.0983 -0.9952 -0.0000
vn 0.6345 -0.7729 -0.0000
vn 0.2902 -0.9570 -0.0000
vn 0.4714 -0.8819 -0.0000
vn -0.9570 -0.2902 -0.0000
vn -0.8819 -0.4714 -0.0000
vn -0.7729 -0.6345 -0.0000
vn -0.6345 -0.7729 -0.0000
vn -0.4714 -0.8819 -0.0000
vn -0.9952 -0.0983 -0.0000
vn -0.9952 0.0983 -0.0000
vn -0.9570 0.2902 -0.0000
vn 0.7071 -0.7071 -0.0000
vn 0.9661 -0.2582 -0.0000
vn 0.9963 0.0855 -0.0000
vn -0.7071 0.7071 -0.0000
vn -0.9660 0.2585 -0.0000
vn -0.3221 -0.9467 -0.0000
vn -0.4047 -0.9145 -0.0000
vn 0.3150 -0.9491 -0.0000
vn 0.3501 -0.9367 -0.0000
vn -0.9020 0.4318 -0.0000
vn -0.6227 0.7825 -0.0000
vn 0.9660 0.2585 -0.0000
vn -0.2585 0.9660 -0.0000
vn 0.2582 0.9661 -0.0000
vn 0.9507 0.3100 -0.0000
vn 0.7582 0.6520 -0.0000
vn -0.9357 0.3529 -0.0000
vn -0.6920 0.7219 -0.0000
vn -0.2105 0.9776 -0.0000
vn 0.6180 0.7862 -0.0000
vn 0.2634 0.9647 -0.0000
vn -0.2250 0.9744 -0.0000
vn 0.2889 0.9574 -0.0000
vn 0.7078 0.7065 -0.0000
vn 0.8220 0.5695 -0.0000
s 0
usemtl Coin.001
f 1//1 2//1 3//1
f 2//1 1//1 4//1
f 3//1 2//1 5//1
f 6//2 1//2 3//2
f 7//1 4//1 1//1
f 7//3 1//3 8//3
f 6//3 8//3 1//3
f 4//4 9//4 2//4
f 2//5 9//5 10//5
f 11//1 5//1 2//1
f 2//5 10//5 11//5
f 12//6 3//6 5//6
f 6//2 3//2 12//2
f 13//1 4//1 7//1
f 13//7 14//7 4//7
f 4//4 14//4 9//4
f 5//1 11//1 15//1
f 16//8 5//8 15//8
f 17//8 5//8 16//8
f 12//6 5//6 17//6
f 6//1 18//1 8//1
f 18//1 6//1 19//1
f 12//1 19//1 6//1
f 20//9 7//9 8//9
f 7//1 21//1 13//1
f 20//9 21//9 7//9
f 22//1 8//1 18//1
f 8//1 22//1 20//1
f 9//1 23//1 10//1
f 14//1 23//1 9//1
f 11//10 10//10 24//10
f 24//1 10//1 25//1
f 10//1 23//1 25//1
f 11//1 26//1 15//1
f 11//10 24//10 26//10
f 17//1 27//1 12//1
f 19//1 12//1 27//1
f 28//1 13//1 21//1
f 28//11 29//11 13//11
f 13//7 29//7 14//7
f 29//1 23//1 14//1
f 30//1 15//1 26//1
f 16//12 15//12 30//12
f 16//1 31//1 17//1
f 16//12 30//12 32//12
f 31//1 16//1 33//1
f 32//1 33//1 16//1
f 34//1 27//1 17//1
f 34//1 17//1 31//1
f 18//13 19//13 35//13
f 36//13 18//13 35//13
f 37//14 18//14 36//14
f 37//14 22//14 18//14
f 35//15 19//15 27//15
f 21//16 20//16 38//16
f 20//1 39//1 38//1
f 39//1 20//1 22//1
f 38//16 40//16 21//16
f 21//1 40//1 28//1
f 41//17 39//17 22//17
f 41//17 22//17 37//17
f 42//18 23//18 43//18
f 43//19 23//19 44//19
f 42//18 45//18 23//18
f 44//1 23//1 46//1
f 23//1 45//1 25//1
f 46//1 23//1 29//1
f 26//20 24//20 47//20
f 25//1 48//1 24//1
f 47//1 24//1 48//1
f 25//21 49//21 50//21
f 51//22 49//22 25//22
f 25//21 50//21 48//21
f 51//1 25//1 45//1
f 26//1 52//1 30//1
f 26//20 47//20 52//20
f 35//15 27//15 53//15
f 53//23 27//23 34//23
f 28//11 46//11 29//11
f 54//24 46//24 28//24
f 40//1 55//1 28//1
f 54//1 28//1 55//1
f 32//25 30//25 56//25
f 56//1 30//1 52//1
f 57//26 34//26 31//26
f 57//26 31//26 58//26
f 58//27 31//27 33//27
f 32//25 56//25 59//25
f 59//1 60//1 32//1
f 60//1 33//1 32//1
f 58//27 33//27 61//27
f 61//28 33//28 60//28
f 53//23 34//23 57//23
f 35//29 53//29 62//29
f 36//29 35//29 63//29
f 35//29 62//29 63//29
f 36//29 63//29 37//29
f 37//29 64//29 41//29
f 64//29 37//29 63//29
f 65//1 38//1 39//1
f 66//1 38//1 65//1
f 66//30 40//30 38//30
f 67//31 65//31 39//31
f 67//31 39//31 41//31
f 66//30 55//30 40//30
f 67//29 41//29 68//29
f 68//29 41//29 64//29
f 42//1 43//1 69//1
f 42//1 70//1 71//1
f 70//1 42//1 69//1
f 51//32 42//32 71//32
f 45//32 42//32 51//32
f 43//19 44//19 54//19
f 43//1 54//1 69//1
f 54//24 44//24 46//24
f 52//33 47//33 72//33
f 72//1 47//1 48//1
f 48//34 50//34 73//34
f 48//34 73//34 74//34
f 74//1 72//1 48//1
f 50//1 49//1 75//1
f 51//22 71//22 49//22
f 49//1 71//1 75//1
f 75//1 76//1 50//1
f 73//1 50//1 76//1
f 52//1 77//1 56//1
f 52//33 72//33 77//33
f 57//29 62//29 53//29
f 55//1 69//1 54//1
f 78//35 55//35 66//35
f 78//35 69//35 55//35
f 59//36 56//36 79//36
f 79//1 56//1 77//1
f 58//29 62//29 57//29
f 61//29 62//29 58//29
f 59//36 79//36 80//36
f 80//1 81//1 59//1
f 60//1 59//1 81//1
f 61//28 60//28 82//28
f 82//37 60//37 81//37
f 61//29 82//29 83//29
f 83//29 62//29 61//29
f 84//29 85//29 62//29
f 84//38 62//38 86//38
f 85//29 87//29 62//29
f 88//38 86//38 62//38
f 89//29 62//29 87//29
f 83//39 88//39 62//39
f 89//29 63//29 62//29
f 90//40 64//40 63//40
f 90//40 63//40 91//40
f 92//41 91//41 63//41
f 89//41 92//41 63//41
f 68//42 64//42 90//42
f 65//43 93//43 94//43
f 67//43 93//43 65//43
f 65//1 94//1 66//1
f 78//1 66//1 94//1
f 93//29 67//29 95//29
f 68//29 95//29 67//29
f 68//42 90//42 96//42
f 97//44 68//44 96//44
f 97//44 95//44 68//44
f 70//22 69//22 78//22
f 98//1 71//1 70//1
f 99//22 70//22 78//22
f 70//45 99//45 100//45
f 100//45 98//45 70//45
f 98//1 75//1 71//1
f 74//46 77//46 72//46
f 76//1 101//1 73//1
f 74//46 73//46 77//46
f 77//1 73//1 101//1
f 75//18 98//18 102//18
f 75//47 102//47 76//47
f 102//47 103//47 76//47
f 76//48 103//48 104//48
f 76//48 104//48 101//48
f 101//1 79//1 77//1
f 78//1 105//1 99//1
f 106//1 78//1 94//1
f 105//1 78//1 107//1
f 107//1 78//1 106//1
f 79//49 101//49 80//49
f 104//49 80//49 101//49
f 104//1 108//1 80//1
f 81//1 80//1 108//1
f 82//37 81//37 109//37
f 110//50 109//50 81//50
f 110//50 81//50 108//50
f 109//29 111//29 82//29
f 112//29 83//29 82//29
f 112//29 82//29 111//29
f 88//39 83//39 113//39
f 114//51 113//51 83//51
f 114//51 83//51 115//51
f 83//29 116//29 115//29
f 116//29 83//29 112//29
f 85//29 84//29 117//29
f 84//52 86//52 118//52
f 118//29 117//29 84//29
f 119//53 120//53 85//53
f 121//53 119//53 85//53
f 120//54 87//54 85//54
f 85//29 117//29 121//29
f 118//52 86//52 122//52
f 87//55 123//55 124//55
f 87//55 124//55 125//55
f 123//54 87//54 120//54
f 87//29 125//29 126//29
f 89//29 87//29 126//29
f 92//56 89//56 127//56
f 126//56 127//56 89//56
f 93//57 128//57 94//57
f 128//29 93//29 129//29
f 95//29 129//29 93//29
f 106//57 94//57 128//57
f 130//58 129//58 95//58
f 130//58 95//58 97//58
f 100//18 102//18 98//18
f 132//1 100//1 99//1
f 133//1 99//1 105//1
f 132//1 99//1 134//1
f 135//1 99//1 133//1
f 136//1 134//1 99//1
f 137//1 99//1 135//1
f 138//1 136//1 99//1
f 137//1 138//1 99//1
f 139//1 102//1 100//1
f 140//1 139//1 100//1
f 140//1 100//1 141//1
f 142//1 141//1 100//1
f 143//1 142//1 100//1
f 132//1 143//1 100//1
f 139//1 144//1 102//1
f 144//1 145//1 102//1
f 146//1 102//1 145//1
f 102//1 146//1 103//1
f 147//1 103//1 146//1
f 103//1 147//1 104//1
f 108//1 104//1 147//1
f 148//59 133//59 105//59
f 148//60 105//60 149//60
f 105//60 107//60 149//60
f 128//61 107//61 106//61
f 128//61 149//61 107//61
f 108//62 147//62 110//62
f 110//29 150//29 109//29
f 111//29 109//29 150//29
f 150//29 110//29 151//29
f 152//62 110//62 147//62
f 152//29 151//29 110//29
f 111//63 153//63 112//63
f 150//64 153//64 111//64
f 154//65 112//65 155//65
f 155//63 112//63 153//63
f 154//65 116//65 112//65
f 114//66 115//66 157//66
f 115//29 158//29 159//29
f 115//66 159//66 157//66
f 158//29 115//29 160//29
f 116//29 160//29 115//29
f 161//67 116//67 154//67
f 161//67 160//67 116//67
f 156//68 162//68 117//68
f 118//69 156//69 117//69
f 162//29 121//29 117//29
f 156//69 118//69 122//69
f 164//70 119//70 121//70
f 164//70 165//70 119//70
f 164//29 121//29 166//29
f 162//29 166//29 121//29
f 163//71 125//71 124//71
f 163//71 167//71 125//71
f 167//29 168//29 125//29
f 169//29 126//29 125//29
f 168//29 170//29 125//29
f 170//29 169//29 125//29
f 149//29 128//29 129//29
f 171//73 172//73 129//73
f 171//73 129//73 130//73
f 172//29 149//29 129//29
f 174//75 175//75 132//75
f 132//75 175//75 143//75
f 174//76 132//76 176//76
f 176//76 132//76 134//76
f 133//77 177//77 178//77
f 133//77 178//77 135//77
f 177//59 133//59 148//59
f 136//78 176//78 134//78
f 178//79 137//79 135//79
f 179//78 176//78 136//78
f 136//80 180//80 179//80
f 180//80 136//80 138//80
f 180//81 138//81 137//81
f 180//81 137//81 181//81
f 178//79 181//79 137//79
f 182//82 183//82 139//82
f 139//82 183//82 144//82
f 184//83 182//83 139//83
f 184//83 139//83 140//83
f 185//84 184//84 140//84
f 185//84 140//84 141//84
f 186//85 185//85 141//85
f 186//85 141//85 142//85
f 186//86 142//86 175//86
f 143//86 175//86 142//86
f 187//87 145//87 144//87
f 187//87 144//87 183//87
f 145//88 187//88 188//88
f 145//88 188//88 146//88
f 146//89 188//89 147//89
f 152//89 147//89 188//89
f 148//29 189//29 177//29
f 189//29 148//29 172//29
f 149//29 172//29 148//29
f 150//64 190//64 153//64
f 151//90 190//90 150//90
f 151//90 191//90 190//90
f 192//91 191//91 151//91
f 192//29 151//29 188//29
f 188//29 151//29 152//29
f 154//29 155//29 161//29
f 197//68 162//68 156//68
f 198//92 196//92 157//92
f 198//92 157//92 159//92
f 158//29 199//29 159//29
f 158//93 195//93 194//93
f 195//94 158//94 160//94
f 158//93 194//93 199//93
f 199//29 200//29 159//29
f 159//29 201//29 198//29
f 202//29 159//29 200//29
f 201//29 159//29 202//29
f 195//94 160//94 161//94
f 203//95 162//95 197//95
f 203//95 166//95 162//95
f 165//97 164//97 166//97
f 165//97 166//97 203//97
f 207//99 172//99 171//99
f 207//99 189//99 172//99
f 174//29 209//29 175//29
f 209//29 174//29 210//29
f 176//29 210//29 174//29
f 175//29 209//29 186//29
f 176//29 179//29 210//29
f 177//29 211//29 178//29
f 211//29 177//29 189//29
f 178//29 211//29 181//29
f 210//29 179//29 212//29
f 179//29 180//29 212//29
f 212//29 180//29 213//29
f 214//29 213//29 180//29
f 181//29 215//29 180//29
f 214//29 180//29 215//29
f 215//29 181//29 211//29
f 182//29 216//29 183//29
f 182//29 184//29 216//29
f 183//29 217//29 187//29
f 217//29 183//29 216//29
f 218//29 216//29 184//29
f 184//29 185//29 218//29
f 219//29 218//29 185//29
f 186//29 219//29 185//29
f 219//29 186//29 220//29
f 220//29 186//29 221//29
f 222//29 186//29 209//29
f 222//29 221//29 186//29
f 188//29 187//29 192//29
f 223//29 192//29 187//29
f 217//29 224//29 187//29
f 224//29 223//29 187//29
f 189//100 207//100 208//100
f 189//100 208//100 211//100
f 192//91 225//91 191//91
f 223//101 225//101 192//101
f 193//102 226//102 194//102
f 193//29 227//29 228//29
f 226//103 193//103 228//103
f 199//102 194//102 226//102
f 196//104 198//104 221//104
f 196//104 221//104 229//104
f 198//29 231//29 221//29
f 231//29 198//29 201//29
f 199//29 226//29 232//29
f 232//29 200//29 199//29
f 233//65 200//65 234//65
f 234//63 200//63 232//63
f 233//65 202//65 200//65
f 235//94 201//94 236//94
f 236//67 201//67 202//67
f 235//94 231//94 201//94
f 236//67 202//67 233//67
f 242//106 205//106 213//106
f 206//106 213//106 205//106
f 206//107 239//107 213//107
f 211//108 208//108 240//108
f 230//109 222//109 209//109
f 209//109 237//109 230//109
f 209//110 238//110 237//110
f 238//110 209//110 210//110
f 212//111 238//111 210//111
f 211//108 240//108 215//108
f 212//111 239//111 238//111
f 212//107 213//107 239//107
f 214//29 242//29 213//29
f 214//112 240//112 241//112
f 214//112 215//112 240//112
f 216//101 243//101 244//101
f 218//113 243//113 216//113
f 216//101 244//101 217//101
f 217//91 244//91 245//91
f 217//91 245//91 224//91
f 218//113 246//113 243//113
f 219//103 246//103 218//103
f 219//103 247//103 246//103
f 247//102 219//102 248//102
f 220//102 248//102 219//102
f 231//93 248//93 220//93
f 231//29 220//29 221//29
f 229//114 221//114 222//114
f 229//114 222//114 230//114
f 223//101 227//101 225//101
f 249//113 227//113 223//113
f 223//29 224//29 249//29
f 224//90 245//90 250//90
f 224//90 250//90 251//90
f 251//29 249//29 224//29
f 226//103 228//103 249//103
f 249//29 251//29 226//29
f 232//29 226//29 251//29
f 249//113 228//113 227//113
f 231//93 235//93 248//93
f 234//63 232//63 252//63
f 251//64 252//64 232//64
f 233//29 234//29 236//29
f 247//29 243//29 246//29
f 251//64 250//64 252//64
usemtl Material.002
f 88//29 113//29 86//29
f 86//29 113//29 122//29
f 96//29 90//29 127//29
f 92//29 127//29 90//29
f 91//29 92//29 90//29
f 96//29 127//29 97//29
f 97//29 127//29 131//29
f 97//29 131//29 130//29
f 114//29 122//29 113//29
f 156//29 122//29 114//29
f 114//29 157//29 156//29
f 120//29 119//29 124//29
f 163//29 124//29 119//29
f 119//29 165//29 163//29
f 124//29 123//29 120//29
f 131//72 127//72 126//72
f 169//72 131//72 126//72
f 130//29 131//29 171//29
f 173//29 171//29 131//29
f 170//74 173//74 131//74
f 170//74 131//74 169//74
f 193//29 194//29 153//29
f 193//29 153//29 190//29
f 153//29 194//29 195//29
f 153//29 195//29 161//29
f 153//29 161//29 155//29
f 157//29 196//29 156//29
f 156//29 196//29 197//29
f 204//96 167//96 163//96
f 205//29 163//29 165//29
f 204//29 163//29 205//29
f 165//29 203//29 206//29
f 206//29 205//29 165//29
f 204//96 168//96 167//96
f 173//98 168//98 204//98
f 173//98 170//98 168//98
f 171//29 173//29 207//29
f 207//29 173//29 208//29
f 173//29 204//29 208//29
f 193//29 190//29 191//29
f 193//29 191//29 225//29
f 193//29 225//29 227//29
f 229//29 197//29 196//29
f 229//29 230//29 197//29
f 203//29 197//29 230//29
f 237//29 238//29 203//29
f 230//29 237//29 203//29
f 239//29 203//29 238//29
f 206//29 203//29 239//29
f 240//29 208//29 204//29
f 240//29 204//29 241//29
f 205//29 241//29 204//29
f 214//105 241//105 205//105
f 214//105 205//105 242//105
f 252//29 236//29 234//29
f 252//29 235//29 236//29
f 252//29 248//29 235//29
f 247//29 244//29 243//29
f 247//29 245//29 244//29
f 247//29 250//29 245//29
f 250//29 247//29 252//29
f 248//29 252//29 247//29
