# Blender 3.6.0
# www.blender.org
mtllib 4_2x.mtl
o 4_2x
v 6.141176 5.505799 0.263480
v -6.127593 5.505799 0.038416
v 6.141176 5.505799 0.038416
v -6.127593 5.505799 0.263480
v -0.026468 13.818767 0.038415
v 6.141176 1.932494 0.263480
v -0.646228 1.932494 0.263480
v -6.127593 1.932494 0.038416
v -12.830734 5.262999 0.038416
v -2.730562 13.551569 0.038415
v -11.550199 7.658883 0.038415
v -5.330443 12.763288 0.038415
v -9.826186 9.758745 0.038415
v -7.726325 11.482753 0.038415
v 2.677623 13.551569 0.038415
v 5.277504 12.763288 0.038415
v 6.141176 1.932494 0.038416
v 7.673385 11.482753 0.038415
v 12.777794 5.262999 0.038416
v 9.773247 9.758745 0.038415
v 11.497258 7.658883 0.038415
v -6.127593 1.932494 0.263480
v 2.677623 13.551569 1.259083
v -0.026468 13.818767 1.259083
v -0.646228 1.932494 0.038416
v 6.141176 -2.687416 0.263480
v 0.608812 -2.663028 0.263480
v -13.619013 2.663120 0.038416
v -13.886209 -0.040974 0.038416
v -6.127593 -2.663028 0.038416
v 0.608812 -2.663028 0.038416
v -11.550199 7.658883 1.259083
v -12.830734 5.262999 1.259084
v -2.730562 13.551569 1.259083
v -5.330443 12.763288 1.259083
v -7.726325 11.482753 1.259083
v -9.826186 9.758745 1.259083
v 5.277504 12.763288 1.259083
v 13.566071 2.663120 0.038416
v 13.832161 -0.040974 0.038416
v 6.141176 -2.687416 0.038416
v 7.673385 11.482753 1.259083
v 9.773247 9.758745 1.259083
v 13.566071 2.663120 1.259084
v 12.777794 5.262999 1.259084
v 11.497258 7.658883 1.259083
v 1.186439 5.505799 1.259084
v -1.617440 5.505799 1.259084
v 6.141176 -6.228572 0.263480
v 6.141176 -6.228572 0.038416
v -6.127593 -2.663028 0.263480
v -6.127593 -6.228572 0.263480
v -13.619013 2.663120 1.259084
v -13.886209 -0.040974 1.259084
v -13.619013 -2.745068 1.259084
v -13.619013 -2.745068 0.038416
v -6.127593 -6.228572 0.038416
v -12.830734 -5.344946 0.038416
v -8.621038 4.617742 1.259084
v -8.011256 5.227522 1.259084
v -8.843885 3.784007 1.259084
v -7.177523 5.450369 1.259084
v -6.344895 5.227522 1.259084
v 13.566071 -2.745068 0.038416
v 13.832161 -0.040974 1.259084
v 12.777794 -5.344946 0.038416
v 8.568095 -0.705077 1.259084
v 1.186439 5.505799 0.589435
v 8.568095 -0.705077 0.589435
v -1.617440 5.505799 0.589435
v -1.617440 -0.705077 0.589435
v -1.617440 -0.705077 1.259084
v -3.910212 -0.705077 1.259084
v -5.511161 -0.096407 1.259084
v -5.734009 0.737328 1.259084
v -5.734009 2.951386 1.259084
v -5.734009 4.617742 1.259084
v -5.511161 3.784007 1.259084
v -0.026468 -13.900715 0.038417
v 2.677623 -13.633516 0.038417
v 5.277504 -12.845236 0.038417
v 11.497258 -7.740829 0.038417
v 7.673385 -11.564700 0.038417
v 9.773247 -9.840689 0.038417
v -8.621038 2.951386 1.259084
v -8.621038 0.737328 1.259084
v -8.843885 -0.096407 1.259084
v -12.830734 -5.344946 1.259084
v -8.843885 -3.976825 1.259084
v -8.621038 -3.143090 1.259084
v -8.011256 -2.533309 1.259084
v -8.621038 -0.929031 1.259084
v -8.011256 -1.539925 1.259084
v -11.550199 -7.740829 0.038417
v -2.730562 -13.633516 0.038417
v -9.826186 -9.840689 0.038417
v -5.330443 -12.845236 0.038417
v -7.726325 -11.564700 0.038417
v -11.550199 -7.740829 1.259085
v -8.621038 4.617742 0.589435
v -8.011256 5.227522 0.589435
v -7.177523 5.450369 0.589435
v -8.843885 3.784007 0.589435
v -6.344895 5.227522 0.589435
v 13.566071 -2.745068 1.259084
v 11.497258 -7.740829 1.259085
v 12.777794 -5.344946 1.259084
v 8.568095 -3.676366 0.589435
v 8.568095 -3.676366 1.259084
v 4.888355 -0.705077 0.589435
v 1.027895 2.576645 0.589435
v 1.027895 -0.705077 0.589435
v 1.027895 -3.676366 0.589435
v -1.617440 -3.676366 0.589435
v -3.910212 -3.676366 0.589435
v -3.910212 -0.705077 0.589435
v -3.910212 -3.676366 1.259084
v -5.734009 -3.143090 1.259084
v -5.734009 -0.929031 1.259084
v -5.734009 -0.929031 0.589435
v -5.511161 -0.096407 0.589435
v -5.734009 0.737328 0.589435
v -6.344895 1.347105 1.259084
v -6.344895 2.340492 1.259084
v -5.734009 2.951386 0.589435
v -6.344895 2.340492 0.589435
v -5.511161 3.784007 0.589435
v -5.734009 4.617742 0.589435
v 2.677623 -13.633516 1.259085
v -0.026468 -13.900715 1.259085
v -2.730562 -13.633516 1.259085
v 5.277504 -12.845236 1.259085
v 9.773247 -9.840689 1.259085
v 7.673385 -11.564700 1.259085
v -8.621038 2.951386 0.589435
v -8.011256 2.340492 1.259084
v -8.621038 0.737328 0.589435
v -8.011256 1.347105 0.589435
v -8.011256 1.347105 1.259084
v -8.843885 -0.096407 0.589435
v -8.621038 -4.809449 1.259084
v -8.843885 -3.976825 0.589435
v -8.621038 -3.143090 0.589435
v -8.011256 -2.533309 0.589435
v -7.177523 -2.310463 0.589435
v -7.177523 -2.310463 1.259084
v -7.177523 -1.762772 1.259084
v -8.621038 -0.929031 0.589435
v -8.011256 -1.539925 0.589435
v -9.826186 -9.840689 1.259085
v -5.330443 -12.845236 1.259085
v -7.726325 -11.564700 1.259085
v -8.011256 -5.420340 1.259084
v -8.011256 2.340492 0.589435
v -7.177523 2.117645 0.589435
v 1.027895 -3.676366 1.259084
v 1.027895 -5.216339 1.259084
v 1.027895 2.576645 1.259084
v 4.888355 -0.705077 1.259084
v 1.027895 -0.705077 1.259084
v 1.027895 -5.216339 0.589435
v -1.617440 -3.676366 1.259084
v -1.617440 -5.216339 1.259084
v -1.617440 -5.216339 0.589435
v -5.511161 -3.976825 1.259084
v -5.734009 -4.809449 1.259084
v -5.511161 -3.976825 0.589435
v -5.734009 -3.143090 0.589435
v -6.344895 -2.533309 0.589435
v -6.344895 -2.533309 1.259084
v -6.344895 -1.539925 1.259084
v -6.344895 1.347105 0.589435
v -6.344895 -1.539925 0.589435
v -7.177523 1.569955 1.259084
v -7.177523 2.117645 1.259084
v -6.344895 -5.420340 1.259084
v -7.177523 -1.762772 0.589435
v -7.177523 1.569955 0.589435
v -8.621038 -4.809449 0.589435
v -7.177523 -5.643189 0.589435
v -7.177523 -5.643189 1.259084
v -8.011256 -5.420340 0.589435
v -5.734009 -4.809449 0.589435
v -6.344895 -5.420340 0.589435
vn -0.0000 -1.0000 -0.0000
vn -0.0000 -0.0000 -1.0000
vn -1.0000 -0.0000 -0.0000
vn 1.0000 -0.0000 -0.0000
vn 0.0983 0.9952 -0.0000
vn -0.0983 0.9952 -0.0000
vn -0.0000 1.0000 -0.0000
vn -0.5627 -0.8267 -0.0000
vn 0.5635 0.8261 -0.0000
vn -0.8819 0.4714 -0.0000
vn -0.9570 0.2902 -0.0000
vn -0.2902 0.9570 -0.0000
vn -0.7729 0.6345 -0.0000
vn -0.4714 0.8819 -0.0000
vn -0.6345 0.7729 -0.0000
vn 0.2902 0.9570 -0.0000
vn 0.4714 0.8819 -0.0000
vn 0.6345 0.7729 -0.0000
vn 0.9570 0.2902 -0.0000
vn 0.8819 0.4714 -0.0000
vn 0.7729 0.6345 -0.0000
vn -0.0000 -0.0000 1.0000
vn -0.9952 0.0983 -0.0000
vn -0.9952 -0.0983 -0.0000
vn 0.9952 0.0979 -0.0000
vn 0.9952 -0.0979 -0.0000
vn -0.6438 -0.7652 -0.0000
vn -0.9570 -0.2902 -0.0000
vn -0.8819 -0.4714 -0.0000
vn 0.7071 -0.7071 -0.0000
vn 0.9661 -0.2582 -0.0000
vn 0.2582 -0.9661 -0.0000
vn 0.9660 0.2585 -0.0000
vn -0.2585 -0.9660 -0.0000
vn -0.7065 -0.7077 -0.0000
vn 0.9570 -0.2902 -0.0000
vn 0.8819 -0.4714 -0.0000
vn -0.9660 0.2585 -0.0000
vn -0.9661 -0.2582 -0.0000
vn -0.7071 0.7071 -0.0000
vn 0.0983 -0.9952 -0.0000
vn -0.0983 -0.9952 -0.0000
vn 0.2902 -0.9570 -0.0000
vn 0.4714 -0.8819 -0.0000
vn 0.7729 -0.6345 -0.0000
vn 0.6345 -0.7729 -0.0000
vn 0.7078 0.7065 -0.0000
vn 0.2582 0.9661 -0.0000
vn -0.7729 -0.6345 -0.0000
vn -0.2902 -0.9570 -0.0000
vn -0.6345 -0.7729 -0.0000
vn -0.4714 -0.8819 -0.0000
vn 0.6477 0.7619 -0.0000
vn -0.2585 0.9660 -0.0000
vn 0.7077 0.7065 -0.0000
s 0
usemtl Coin.002
f 1//1 2//1 3//1
f 1//1 4//1 2//1
f 5//2 3//2 2//2
f 6//3 1//3 3//3
f 1//2 7//2 4//2
f 6//2 7//2 1//2
f 8//4 2//4 4//4
f 8//2 9//2 2//2
f 5//2 2//2 10//2
f 11//2 2//2 9//2
f 10//2 2//2 12//2
f 13//2 2//2 11//2
f 12//2 2//2 14//2
f 13//2 14//2 2//2
f 5//2 15//2 3//2
f 15//2 16//2 3//2
f 6//3 3//3 17//3
f 18//2 3//2 16//2
f 3//2 19//2 17//2
f 18//2 20//2 3//2
f 19//2 3//2 21//2
f 20//2 21//2 3//2
f 4//2 7//2 22//2
f 4//4 22//4 8//4
f 23//5 15//5 5//5
f 23//5 5//5 24//5
f 24//6 5//6 10//6
f 25//7 7//7 6//7
f 25//7 6//7 17//7
f 26//8 7//8 25//8
f 27//2 22//2 7//2
f 26//2 27//2 7//2
f 28//2 9//2 8//2
f 29//2 28//2 8//2
f 22//9 27//9 8//9
f 30//2 29//2 8//2
f 31//9 8//9 27//9
f 31//2 30//2 8//2
f 32//10 9//10 33//10
f 9//10 32//10 11//10
f 33//11 9//11 28//11
f 24//6 10//6 34//6
f 34//12 10//12 12//12
f 32//13 13//13 11//13
f 34//12 12//12 35//12
f 35//14 12//14 14//14
f 36//15 14//15 13//15
f 36//15 13//15 37//15
f 32//13 37//13 13//13
f 35//14 14//14 36//14
f 38//16 16//16 15//16
f 38//16 15//16 23//16
f 18//17 16//17 38//17
f 39//2 17//2 19//2
f 40//2 17//2 39//2
f 25//2 17//2 41//2
f 17//2 40//2 41//2
f 42//17 18//17 38//17
f 43//18 20//18 18//18
f 43//18 18//18 42//18
f 39//19 19//19 44//19
f 45//19 44//19 19//19
f 19//20 21//20 45//20
f 46//21 21//21 20//21
f 46//21 20//21 43//21
f 21//20 46//20 45//20
f 38//22 23//22 47//22
f 23//22 24//22 47//22
f 34//22 48//22 24//22
f 48//22 47//22 24//22
f 25//8 41//8 26//8
f 27//2 26//2 49//2
f 50//3 49//3 26//3
f 50//3 26//3 41//3
f 31//1 27//1 51//1
f 51//2 27//2 52//2
f 52//2 27//2 49//2
f 53//11 33//11 28//11
f 29//23 54//23 28//23
f 53//23 28//23 54//23
f 54//24 29//24 55//24
f 56//24 55//24 29//24
f 29//2 30//2 56//2
f 30//2 57//2 58//2
f 51//4 57//4 30//4
f 56//2 30//2 58//2
f 31//1 51//1 30//1
f 33//22 59//22 32//22
f 32//22 60//22 37//22
f 60//22 32//22 59//22
f 53//22 61//22 33//22
f 59//22 33//22 61//22
f 35//22 48//22 34//22
f 36//22 48//22 35//22
f 37//22 62//22 36//22
f 63//22 48//22 36//22
f 62//22 63//22 36//22
f 62//22 37//22 60//22
f 38//22 47//22 42//22
f 44//25 40//25 39//25
f 64//2 41//2 40//2
f 65//26 64//26 40//26
f 44//25 65//25 40//25
f 41//2 66//2 50//2
f 66//2 41//2 64//2
f 42//22 47//22 43//22
f 43//22 47//22 46//22
f 65//22 44//22 67//22
f 44//22 45//22 67//22
f 47//22 67//22 45//22
f 46//22 47//22 45//22
f 68//27 69//27 47//27
f 48//1 68//1 47//1
f 47//27 69//27 67//27
f 48//1 70//1 68//1
f 71//4 70//4 48//4
f 72//4 71//4 48//4
f 48//22 73//22 72//22
f 73//22 48//22 74//22
f 75//22 74//22 48//22
f 48//22 76//22 75//22
f 63//22 77//22 48//22
f 76//22 48//22 78//22
f 78//22 48//22 77//22
f 52//7 49//7 50//7
f 52//7 50//7 57//7
f 57//2 50//2 79//2
f 80//2 79//2 50//2
f 81//2 80//2 50//2
f 82//2 50//2 66//2
f 83//2 81//2 50//2
f 84//2 50//2 82//2
f 83//2 50//2 84//2
f 51//4 52//4 57//4
f 61//22 53//22 85//22
f 85//22 53//22 86//22
f 54//22 87//22 53//22
f 86//22 53//22 87//22
f 55//22 87//22 54//22
f 88//28 55//28 56//28
f 55//22 88//22 89//22
f 89//22 90//22 55//22
f 55//22 90//22 91//22
f 87//22 55//22 92//22
f 55//22 91//22 93//22
f 93//22 92//22 55//22
f 88//28 56//28 58//28
f 94//2 58//2 57//2
f 95//2 57//2 79//2
f 96//2 94//2 57//2
f 97//2 57//2 95//2
f 96//2 57//2 98//2
f 97//2 98//2 57//2
f 99//29 88//29 58//29
f 99//29 58//29 94//29
f 59//30 100//30 101//30
f 61//31 100//31 59//31
f 59//30 101//30 60//30
f 60//32 101//32 102//32
f 60//32 102//32 62//32
f 61//31 103//31 100//31
f 85//33 103//33 61//33
f 104//34 62//34 102//34
f 104//34 63//34 62//34
f 63//35 104//35 77//35
f 105//36 66//36 64//36
f 105//26 64//26 65//26
f 105//22 65//22 67//22
f 106//37 82//37 66//37
f 106//37 66//37 107//37
f 107//36 66//36 105//36
f 108//3 67//3 69//3
f 108//3 109//3 67//3
f 109//22 105//22 67//22
f 71//1 72//1 116//1
f 73//1 116//1 72//1
f 117//22 73//22 118//22
f 73//4 117//4 116//4
f 119//22 118//22 73//22
f 74//22 119//22 73//22
f 120//38 74//38 121//38
f 121//39 74//39 75//39
f 120//38 119//38 74//38
f 121//39 75//39 122//39
f 122//35 75//35 123//35
f 123//22 75//22 124//22
f 76//22 124//22 75//22
f 76//40 125//40 126//40
f 125//38 76//38 78//38
f 76//40 126//40 124//40
f 127//39 77//39 128//39
f 128//35 77//35 104//35
f 127//39 78//39 77//39
f 125//38 78//38 127//38
f 129//41 130//41 79//41
f 129//41 79//41 80//41
f 131//42 79//42 130//42
f 131//42 95//42 79//42
f 80//43 132//43 129//43
f 132//43 80//43 81//43
f 81//44 83//44 132//44
f 82//45 106//45 133//45
f 82//45 133//45 84//45
f 134//44 132//44 83//44
f 83//46 84//46 134//46
f 133//46 134//46 84//46
f 85//33 135//33 103//33
f 136//47 135//47 85//47
f 136//22 85//22 86//22
f 86//30 137//30 138//30
f 87//31 137//31 86//31
f 86//30 138//30 139//30
f 139//22 136//22 86//22
f 87//31 140//31 137//31
f 92//33 140//33 87//33
f 141//22 89//22 88//22
f 88//22 99//22 141//22
f 89//31 142//31 143//31
f 141//33 142//33 89//33
f 89//31 143//31 90//31
f 90//30 143//30 144//30
f 90//30 144//30 91//30
f 91//32 144//32 145//32
f 91//32 145//32 146//32
f 146//22 147//22 91//22
f 147//22 93//22 91//22
f 92//33 148//33 140//33
f 93//47 148//47 92//47
f 93//47 149//47 148//47
f 147//48 149//48 93//48
f 150//49 99//49 94//49
f 150//49 94//49 96//49
f 97//50 95//50 151//50
f 131//50 151//50 95//50
f 96//51 152//51 150//51
f 98//51 152//51 96//51
f 152//52 98//52 97//52
f 97//52 151//52 152//52
f 141//22 99//22 153//22
f 150//22 153//22 99//22
f 101//22 100//22 103//22
f 128//22 104//22 127//22
f 105//22 109//22 107//22
f 106//22 109//22 133//22
f 107//22 109//22 106//22
f 109//7 108//7 113//7
f 109//7 113//7 156//7
f 156//22 157//22 109//22
f 157//22 133//22 109//22
f 110//53 111//53 158//53
f 110//53 158//53 159//53
f 110//1 159//1 112//1
f 112//3 160//3 111//3
f 160//3 158//3 111//3
f 160//1 112//1 159//1
f 161//3 156//3 113//3
f 162//7 114//7 115//7
f 114//4 162//4 163//4
f 114//4 163//4 164//4
f 115//4 116//4 117//4
f 162//7 115//7 117//7
f 165//22 117//22 118//22
f 165//22 166//22 117//22
f 163//22 117//22 166//22
f 163//22 162//22 117//22
f 167//39 118//39 168//39
f 168//35 118//35 169//35
f 167//39 165//39 118//39
f 170//35 169//35 118//35
f 170//22 118//22 171//22
f 171//22 118//22 119//22
f 119//40 120//40 171//40
f 173//40 171//40 120//40
f 122//35 123//35 172//35
f 172//34 123//34 174//34
f 174//22 123//22 124//22
f 124//54 126//54 155//54
f 124//54 155//54 175//54
f 124//22 175//22 174//22
f 129//22 157//22 130//22
f 132//22 157//22 129//22
f 163//22 130//22 157//22
f 131//22 130//22 163//22
f 131//22 176//22 151//22
f 176//22 131//22 166//22
f 166//22 131//22 163//22
f 134//22 157//22 132//22
f 133//22 157//22 134//22
f 136//47 154//47 135//47
f 175//48 154//48 136//48
f 175//22 136//22 174//22
f 174//22 136//22 139//22
f 139//32 138//32 178//32
f 139//32 178//32 174//32
f 141//33 179//33 142//33
f 153//55 179//55 141//55
f 169//34 146//34 145//34
f 169//34 170//34 146//34
f 146//22 170//22 147//22
f 147//48 177//48 149//48
f 171//54 177//54 147//54
f 147//22 170//22 171//22
f 153//22 150//22 181//22
f 152//22 181//22 150//22
f 151//22 176//22 152//22
f 181//22 152//22 176//22
f 153//55 182//55 179//55
f 181//48 182//48 153//48
f 175//48 155//48 154//48
f 161//3 157//3 156//3
f 157//7 161//7 164//7
f 157//7 164//7 163//7
f 159//22 158//22 160//22
f 183//38 165//38 167//38
f 183//38 166//38 165//38
f 166//40 183//40 176//40
f 169//22 167//22 168//22
f 171//54 173//54 177//54
f 172//34 174//34 178//34
f 184//40 176//40 183//40
f 176//54 184//54 180//54
f 176//54 180//54 181//54
f 180//22 179//22 182//22
f 181//48 180//48 182//48
usemtl Material.003
f 69//22 68//22 110//22
f 68//22 70//22 111//22
f 111//22 110//22 68//22
f 108//22 69//22 110//22
f 71//22 111//22 70//22
f 112//22 111//22 71//22
f 71//22 113//22 112//22
f 113//22 71//22 114//22
f 115//22 114//22 71//22
f 116//22 115//22 71//22
f 101//22 154//22 155//22
f 101//22 155//22 102//22
f 101//22 135//22 154//22
f 101//22 103//22 135//22
f 126//22 102//22 155//22
f 125//22 102//22 126//22
f 127//22 102//22 125//22
f 102//22 127//22 104//22
f 108//22 110//22 113//22
f 110//22 112//22 113//22
f 161//22 113//22 114//22
f 161//22 114//22 164//22
f 172//22 120//22 121//22
f 120//22 172//22 173//22
f 172//22 121//22 122//22
f 177//22 138//22 137//22
f 177//22 137//22 140//22
f 177//22 178//22 138//22
f 177//22 140//22 148//22
f 180//22 143//22 142//22
f 180//22 142//22 179//22
f 180//22 144//22 143//22
f 180//22 145//22 144//22
f 180//22 169//22 145//22
f 177//22 148//22 149//22
f 169//22 183//22 167//22
f 180//22 184//22 169//22
f 183//22 169//22 184//22
f 177//22 173//22 172//22
f 177//22 172//22 178//22
