# Blender v2.75 (sub 0) OBJ File: 'Catan_Road_Roman.blend'
# www.blender.org
mtllib Catan_Road_Roman_Final.mtl
o Catan_Round-End_Roads
v 15.105232 -3.309080 -4.378231
v 14.456439 -3.309080 -3.662080
v 13.260634 -3.309080 -4.378231
v 15.105232 4.629202 -4.378231
v 15.100739 4.629202 -4.373268
v 13.800829 -3.309080 -2.549685
v -16.966433 4.629202 -4.378231
v 11.614964 -0.461403 -4.378231
v 11.441918 0.109060 -4.378231
v 11.155097 0.645663 -4.378231
v 10.769103 1.116000 -4.378231
v 10.298766 1.501996 -4.378231
v 9.762164 1.788816 -4.378231
v 9.179916 1.965440 -4.378231
v 8.574401 2.025079 -4.378231
v 7.968881 1.965441 -4.378231
v 7.386633 1.788818 -4.378231
v 6.850031 1.501999 -4.378231
v 6.420895 1.149817 -4.378231
v 15.054635 4.641848 -4.322382
v 15.100176 4.641848 -4.372646
v 13.854243 3.792188 -2.640316
v 13.998904 4.112960 -2.885767
v 11.667656 -3.309080 -2.368075
v 11.667656 -3.309080 -4.137402
v -16.966433 -3.309080 -4.378231
v 6.379694 1.116005 -4.378231
v 5.993699 0.645669 -4.378231
v 5.706879 0.109066 -4.378231
v 5.530255 -0.473182 -4.378231
v 5.481136 -3.309080 -4.378231
v 2.258563 -3.309080 -4.378231
v 2.209445 -0.473188 -4.378231
v 2.032823 0.109060 -4.378231
v 1.746004 0.645663 -4.378231
v 1.360009 1.116000 -4.378231
v 0.889673 1.501996 -4.378231
v 0.353071 1.788817 -4.378231
v -0.229177 1.965440 -4.378231
v -0.834695 2.025079 -4.378231
v -1.440212 1.965442 -4.378231
v -2.022460 1.788819 -4.378231
v -2.559063 1.501999 -4.378231
v -3.029400 1.116005 -4.378231
v -3.415396 0.645669 -4.378231
v -3.702216 0.109066 -4.378231
v -3.878839 -0.473182 -4.378231
v -3.927958 -3.309080 -4.378231
v -7.362643 -3.309080 -4.378231
v -7.411760 -0.473188 -4.378231
v -7.588382 0.109060 -4.378231
v -7.875202 0.645664 -4.378231
v -8.261196 1.116001 -4.378231
v -8.731534 1.501996 -4.378231
v -9.268134 1.788817 -4.378231
v -9.850383 1.965441 -4.378231
v -10.455900 2.025080 -4.378231
v -11.061419 1.965442 -4.378231
v -11.643668 1.788819 -4.378231
v -12.180268 1.502000 -4.378231
v -12.650607 1.116005 -4.378231
v -13.036602 0.645669 -4.378231
v -13.323421 0.109067 -4.378231
v -13.500045 -0.473181 -4.378231
v -13.549165 -3.309080 -4.378231
v 11.667656 -3.309080 -4.378231
v 11.618539 -0.473188 -4.378231
v 11.618539 -0.473188 4.199297
v 11.441918 0.109060 4.199297
v 11.155097 0.645663 4.199297
v 10.769103 1.116000 4.199297
v 10.298766 1.501996 4.199297
v 9.762164 1.788816 4.199297
v 9.179916 1.965440 4.199297
v 8.574401 2.025079 4.199297
v 7.968881 1.965441 4.199297
v 7.386633 1.788818 4.199297
v 6.850030 1.501999 4.199297
v 6.379693 1.116005 4.199297
v 14.237426 4.641848 -3.290468
v 14.297129 4.641848 -3.391766
v 14.355696 4.641848 -3.491144
v 14.409698 4.641848 -3.582771
v 14.456439 4.641848 -3.662080
v 14.471233 4.641848 -3.678405
v 14.556909 4.641848 -3.772976
v 14.641894 4.641848 -3.866788
v 14.732288 4.641848 -3.966564
v 14.831347 4.641848 -4.075914
v 14.934190 4.641848 -4.189430
v -12.506925 4.641848 -4.372646
v -16.961372 4.641848 -4.372646
v -16.915840 4.641848 -4.322382
v -16.795395 4.641848 -4.189430
v -16.692551 4.641848 -4.075914
v -16.593489 4.641848 -3.966564
v -16.503101 4.641848 -3.866788
v -16.418116 4.641848 -3.772976
v -16.332432 4.641848 -3.678405
v -16.317642 4.641848 -3.662080
v -16.270901 4.641848 -3.582771
v -16.216900 4.641848 -3.491144
v -16.158335 4.641848 -3.391766
v -16.098631 4.641848 -3.290468
v -16.961935 4.629202 -4.373268
v 13.800829 3.673746 -2.549685
v 13.999928 4.115230 -2.887504
v 11.667656 -3.309080 -4.208688
v 13.396867 -3.309080 -1.342949
v 11.667656 -3.309080 -1.266815
v 11.667656 -3.309080 -4.339661
v 11.667656 -3.309080 -4.277520
v 11.667656 -3.309080 -0.087324
v 11.667656 -3.309080 -0.017236
v 11.667656 -3.309080 1.167444
v 11.667656 -3.309080 1.239253
v 11.667656 -3.309080 1.348326
v 11.667656 -3.309080 2.506661
v 11.667656 -3.309080 3.552732
v 11.667656 -3.309080 4.199297
v -13.549165 -3.309080 -3.729110
v -16.317642 -3.309080 -3.662080
v 5.993698 0.645669 4.199297
v 5.706879 0.109066 4.199297
v 5.530254 -0.473182 4.199297
v 5.481136 -3.309080 4.199297
v 5.481136 -3.309080 3.699494
v 5.481136 -3.309080 2.890868
v 5.481136 -3.309080 1.995461
v 5.481136 -3.309080 1.496163
v 5.481136 -3.309080 1.167444
v 5.481136 -3.309080 0.254959
v 5.481136 -3.309080 -0.087324
v 5.481136 -3.309080 -0.994434
v 5.481136 -3.309080 -1.841379
v 5.481136 -3.309080 -3.202114
v 5.481136 -3.309080 -3.550249
v 5.481136 -3.309080 -3.886396
v 5.481136 -3.309080 -4.189873
v 2.258563 -3.309080 -4.111848
v 2.258563 -3.309080 -3.682659
v 2.258563 -3.309080 -3.207266
v 2.258563 -3.309080 -2.714920
v 2.258563 -3.309080 -1.567022
v 2.258563 -3.309080 -0.852550
v 2.258563 -3.309080 -0.087324
v 2.258563 -3.309080 0.396746
v 2.258563 -3.309080 1.167444
v 2.258563 -3.309080 1.629988
v 2.258563 -3.309080 2.332555
v 2.258562 -3.309080 3.091003
v 2.258562 -3.309080 3.775944
v 2.258562 -3.309080 4.199297
v 2.209445 -0.473188 4.199297
v 2.032823 0.109060 4.199297
v 1.746003 0.645663 4.199297
v 1.360009 1.116000 4.199297
v 0.889673 1.501996 4.199297
v 0.353070 1.788817 4.199297
v -0.229177 1.965440 4.199297
v -0.834695 2.025079 4.199297
v -1.440213 1.965442 4.199297
v -2.022461 1.788819 4.199297
v -2.559064 1.501999 4.199297
v -3.029401 1.116005 4.199297
v -3.415396 0.645669 4.199297
v -3.702217 0.109066 4.199297
v -3.878839 -0.473182 4.199297
v -3.927959 -3.309080 4.199297
v -3.927958 -3.309080 3.922705
v -3.927958 -3.309080 3.475210
v -3.927958 -3.309080 2.979690
v -3.927958 -3.309080 1.886898
v -3.927958 -3.309080 1.167444
v -3.927958 -3.309080 0.668941
v -3.927958 -3.309080 -0.087324
v -3.927958 -3.309080 -0.580169
v -3.927958 -3.309080 -1.040326
v -3.927958 -3.309080 -1.779632
v -3.927958 -3.309080 -2.548827
v -3.927958 -3.309080 -3.291535
v -3.927958 -3.309080 -3.962059
v -7.362643 -3.309080 -3.878899
v -7.362643 -3.309080 -3.074388
v -7.362643 -3.309080 -2.183269
v -7.362643 -3.309080 -1.260371
v -7.362643 -3.309080 -0.747911
v -7.362643 -3.309080 -0.428947
v -7.362643 -3.309080 -0.087324
v -7.362643 -3.309080 0.820061
v -7.362643 -3.309080 1.167444
v -7.362643 -3.309080 2.029531
v -7.362643 -3.309080 3.338972
v -7.362643 -3.309080 3.688517
v -7.362643 -3.309080 4.004186
v -7.362643 -3.309080 4.199297
v -7.411761 -0.473188 4.199297
v -7.588383 0.109060 4.199297
v -7.875203 0.645664 4.199297
v -8.261199 1.116001 4.199297
v -8.373732 1.208354 4.199297
v -8.731535 1.501996 4.199297
v -9.268134 1.788817 4.199297
v -9.850383 1.965441 4.199297
v -10.455900 2.025080 4.199297
v -11.061419 1.965442 4.199297
v -11.643668 1.788819 4.199297
v -12.180268 1.502000 4.199297
v -12.650607 1.116005 4.199297
v -13.036602 0.645669 4.199297
v -13.323421 0.109067 4.199297
v -13.455918 -0.327713 4.199297
v -13.500045 -0.473181 4.199297
v -13.549165 -3.309080 4.199297
v -13.549165 -3.309080 4.150948
v -13.549165 -3.309080 4.072725
v -13.549165 -3.309080 3.986107
v -13.549165 -3.309080 2.286441
v -13.549165 -3.309080 1.167444
v -13.549165 -3.309080 1.092256
v -13.549165 -3.309080 -0.087324
v -13.549165 -3.309080 -0.156566
v -13.549165 -3.309080 -0.221215
v -13.549165 -3.309080 -0.325083
v -13.549165 -3.309080 -1.524830
v -13.549165 -3.309080 -2.683264
v 15.101558 -3.309080 4.199297
v 15.101558 4.528203 4.199297
v 14.237206 4.641363 -3.290096
v -16.098410 4.641363 -3.290096
v 13.524270 3.180145 -1.723534
v 13.674393 3.180145 -2.171986
v 14.029358 4.180482 -2.937435
v 13.396867 3.180145 -1.342949
v 13.260634 -3.309080 -0.087324
v 13.396867 -3.309080 1.167444
v 13.800829 -3.309080 2.374183
v 14.456439 -3.309080 3.486574
v -15.662029 -3.309080 -2.549685
v -16.962763 4.528203 4.199297
v -15.587236 -3.309080 4.199297
v -15.662029 -3.309080 2.374183
v -15.258065 -3.309080 1.167444
v -15.121835 -3.309080 -0.087324
v -15.258065 -3.309080 -1.342949
v 14.175685 4.504945 -3.185711
v -16.036890 4.504945 -3.185711
v 14.056787 4.241304 -2.983975
v 13.353900 3.180145 -0.946945
v 13.396867 3.180145 1.167444
v 13.353900 3.180145 0.771711
v 13.800829 3.795062 2.374183
v 13.681780 3.376116 2.018546
v 13.991689 4.176546 2.698018
v 13.851857 3.897058 2.460765
v -15.860107 4.112960 -2.885767
v -15.715446 3.792188 -2.640316
v 15.102334 4.528203 4.200154
v -16.962763 -3.309080 4.199297
v -16.317642 -3.309080 3.486574
v -15.542979 3.376116 2.018546
v -15.662029 3.795062 2.374183
v -15.215101 3.180145 0.771711
v -15.258065 3.180145 1.167444
v -15.258065 3.180145 -1.342949
v -15.215101 3.180145 -0.946945
v -15.385472 3.180145 -1.723534
v 15.101558 4.537345 4.199297
v 14.108929 4.356930 -3.072451
v -15.970134 4.356930 -3.072451
v 13.260634 3.180145 -0.087324
v 13.626091 3.180145 1.852190
v 14.021324 4.235777 2.748298
v -15.890561 4.180482 -2.937435
v -15.662029 3.673746 -2.549685
v -16.963539 4.528203 4.200154
v -15.713061 3.897058 2.460765
v -15.852891 4.176546 2.698018
v -15.487290 3.180145 1.852190
v -15.121835 3.180145 -0.087324
v -15.535593 3.180145 -2.171986
v 15.093756 4.629202 4.190679
v -15.917989 4.241304 -2.983975
v 14.094187 4.381413 2.871927
v -16.962763 4.537345 4.199297
v -16.317642 4.641848 3.486574
v -16.888784 4.641848 4.117572
v -15.853705 4.178172 2.699398
v 15.044682 4.641848 4.136459
v 15.092686 4.641848 4.189493
v 15.101558 4.629202 4.199297
v 14.125415 4.443834 2.924915
v -16.894104 4.641848 4.123447
v -16.085688 4.641848 3.093005
v -16.094418 4.641848 3.107813
v -16.154535 4.641848 3.209827
v -16.213221 4.641848 3.309396
v -16.270056 4.641848 3.405834
v -16.945908 4.641848 4.180675
v -16.953882 4.641848 4.189493
v -12.502395 4.641848 4.189493
v 14.925648 4.641848 4.004951
v 14.823797 4.641848 3.892429
v 14.725457 4.641848 3.783785
v 14.635615 4.641848 3.684528
v 14.550993 4.641848 3.591037
v 14.465569 4.641848 3.496658
v 14.456439 4.641848 3.486574
v 14.408856 4.641848 3.405834
v 14.352016 4.641848 3.309396
v 14.293333 4.641848 3.209827
v 14.233212 4.641848 3.107813
v 14.224483 4.641848 3.093005
v -15.882525 4.235777 2.748298
v -16.954956 4.629202 4.190679
v -16.962763 4.629202 4.199297
v 14.126281 4.445564 2.926383
v -16.031622 4.533785 3.001272
v 14.170416 4.533785 3.001272
v -15.955387 4.381413 2.871927
v -15.986617 4.443834 2.924915
vn 0.000000 -1.000000 -0.000000
vn 0.000000 0.000000 -1.000000
vn 0.741100 -0.000000 0.671400
vn 0.741300 0.000000 0.671200
vn 0.861500 0.000000 0.507700
vn 0.000000 1.000000 -0.000100
vn -0.956900 -0.290300 0.000000
vn -0.881900 -0.471400 0.000000
vn -0.773000 -0.634400 0.000000
vn -0.634400 -0.773000 0.000000
vn -0.471400 -0.881900 0.000000
vn -0.290300 -0.956900 0.000000
vn -0.098000 -0.995200 0.000000
vn 0.098000 -0.995200 0.000000
vn 0.290300 -0.956900 0.000000
vn 0.471400 -0.881900 0.000000
vn 0.634400 -0.773000 0.000000
vn 0.000000 1.000000 -0.000000
vn 0.000000 0.049100 -0.998800
vn 0.861400 0.000000 0.507900
vn -0.999800 -0.017300 0.000000
vn -0.741000 0.000000 0.671500
vn 0.773000 -0.634400 0.000000
vn 0.881900 -0.471400 0.000000
vn 0.956900 -0.290300 0.000000
vn 0.999900 -0.017300 0.000000
vn -0.999900 -0.017300 -0.000000
vn 0.000000 0.000000 1.000000
vn 0.861500 0.000000 0.507800
vn 0.741000 0.000000 0.671500
vn -0.741100 -0.000000 0.671400
vn -0.861500 0.000000 0.507700
vn -0.861500 -0.000000 0.507800
vn 0.948300 0.000000 0.317400
vn 0.741400 0.000000 -0.671100
vn 0.994200 0.000000 0.107900
vn 0.994200 0.000000 -0.107900
vn 0.948300 -0.000000 -0.317400
vn 0.861500 -0.000000 -0.507700
vn -0.948300 -0.000000 -0.317400
vn -0.994200 0.000000 -0.107900
vn -0.994200 0.000000 0.107900
vn -0.948300 -0.000000 0.317400
vn 0.861500 -0.000000 -0.507800
vn 0.740900 0.000000 -0.671600
vn -0.741400 0.000000 -0.671100
vn -0.861500 -0.000000 -0.507700
vn -0.861500 0.000000 -0.507800
vn 0.741300 0.000000 -0.671100
vn 0.000000 0.093300 0.995600
vn -0.740900 0.000000 -0.671600
vn -0.861300 -0.000300 -0.508100
vn 0.741400 -0.000000 -0.671000
vn -0.741300 -0.000100 -0.671100
vn 0.000000 0.093400 0.995600
vn 0.000000 1.000000 0.000100
vn 0.861400 -0.000100 -0.508000
vn -0.741700 0.000300 -0.670700
vn 0.741300 0.000000 -0.671200
vn -0.741100 0.000000 -0.671400
vn 0.000000 0.607700 0.794200
vn -0.000000 0.647200 -0.762400
usemtl None
s off
f 1//1 2//1 3//1
f 1//2 3//2 4//2
f 1//3 5//3 2//3
f 2//1 6//1 3//1
f 5//4 1//4 4//4
f 7//2 4//2 3//2 8//2 9//2 10//2 11//2 12//2 13//2 14//2 15//2 16//2 17//2 18//2 19//2
f 20//3 2//3 5//3 21//3
f 22//5 6//5 2//5 23//5
f 3//1 6//1 24//1 25//1
f 7//6 5//6 4//6
f 26//2 7//2 19//2 27//2 28//2 29//2 30//2 31//2 32//2 33//2 34//2 35//2 36//2 37//2 38//2 39//2 40//2 41//2 42//2 43//2 44//2 45//2 46//2 47//2 48//2 49//2 50//2 51//2 52//2 53//2 54//2 55//2 56//2 57//2 58//2 59//2 60//2 61//2 62//2 63//2 64//2 65//2
f 8//2 3//2 66//2 67//2
f 9//7 8//7 67//7 68//7 69//7
f 10//8 9//8 69//8 70//8
f 11//9 10//9 70//9 71//9
f 12//10 11//10 71//10 72//10
f 13//11 12//11 72//11 73//11
f 14//12 13//12 73//12 74//12
f 15//13 14//13 74//13 75//13
f 16//14 15//14 75//14 76//14
f 17//15 16//15 76//15 77//15
f 18//16 17//16 77//16 78//16
f 27//17 19//17 18//17 78//17 79//17
f 80//18 81//18 82//18 83//18 84//18 85//18 86//18 87//18 88//18 89//18 90//18 20//18 21//18 91//18 92//18 93//18 94//18 95//18 96//18 97//18 98//18 99//18 100//18 101//18 102//18 103//18 104//18
f 90//3 2//3 20//3
f 21//19 5//19 105//19 91//19
f 106//5 6//5 22//5
f 23//20 2//20 107//20
f 3//1 25//1 108//1
f 6//1 109//1 110//1 24//1
f 67//21 66//21 111//21 112//21 108//21 25//21 24//21 110//21 113//21 114//21 115//21 116//21 117//21 118//21 119//21 120//21 68//21
f 7//18 105//18 5//18
f 26//1 65//1 121//1 122//1
f 26//22 105//22 7//22
f 28//23 27//23 79//23 123//23
f 29//24 28//24 123//24 124//24
f 30//25 29//25 124//25 125//25
f 125//26 126//26 127//26 128//26 129//26 130//26 131//26 132//26 133//26 134//26 135//26 136//26 137//26 138//26 139//26 31//26 30//26
f 32//1 31//1 139//1 140//1
f 33//27 32//27 140//27 141//27 142//27 143//27 144//27 145//27 146//27 147//27 148//27 149//27 150//27 151//27 152//27 153//27 154//27
f 34//7 33//7 154//7 155//7
f 35//8 34//8 155//8 156//8
f 36//9 35//9 156//9 157//9
f 37//10 36//10 157//10 158//10
f 38//11 37//11 158//11 159//11
f 39//12 38//12 159//12 160//12
f 40//13 39//13 160//13 161//13
f 41//14 40//14 161//14 162//14
f 42//15 41//15 162//15 163//15
f 43//16 42//16 163//16 164//16
f 44//17 43//17 164//17 165//17
f 45//23 44//23 165//23 166//23
f 46//24 45//24 166//24 167//24
f 47//25 46//25 167//25 168//25
f 168//26 169//26 170//26 171//26 172//26 173//26 174//26 175//26 176//26 177//26 178//26 179//26 180//26 181//26 182//26 48//26 47//26
f 49//1 48//1 182//1 183//1
f 50//27 49//27 183//27 184//27 185//27 186//27 187//27 188//27 189//27 190//27 191//27 192//27 193//27 194//27 195//27 196//27 197//27
f 51//7 50//7 197//7 198//7
f 52//8 51//8 198//8 199//8
f 53//9 52//9 199//9 200//9
f 54//10 53//10 200//10 201//10 202//10
f 55//11 54//11 202//11 203//11
f 56//12 55//12 203//12 204//12
f 57//13 56//13 204//13 205//13
f 58//14 57//14 205//14 206//14
f 59//15 58//15 206//15 207//15
f 60//16 59//16 207//16 208//16
f 61//17 60//17 208//17 209//17
f 62//23 61//23 209//23 210//23
f 63//24 62//24 210//24 211//24
f 64//25 63//25 211//25 212//25 213//25
f 213//26 214//26 215//26 216//26 217//26 218//26 219//26 220//26 221//26 222//26 223//26 224//26 225//26 226//26 121//26 65//26 64//26
f 66//1 3//1 111//1
f 227//28 228//28 201//28 200//28 199//28 198//28 197//28 196//28 169//28 168//28 167//28 166//28 165//28 164//28 163//28 162//28 161//28 160//28 159//28 158//28 157//28 156//28 155//28 154//28 153//28 126//28 125//28 124//28 123//28 79//28 78//28 77//28 76//28 75//28 74//28 73//28 72//28 71//28 70//28 69//28 68//28 120//28
f 229//29 2//29 81//29 80//29
f 81//5 2//5 82//5
f 82//5 2//5 83//5
f 83//5 2//5 84//5
f 84//30 2//30 85//30
f 85//3 2//3 86//3
f 86//3 2//3 87//3
f 87//3 2//3 88//3
f 88//3 2//3 89//3
f 89//3 2//3 90//3
f 91//19 105//19 92//19
f 93//31 92//31 105//31 122//31
f 93//31 122//31 94//31
f 94//31 122//31 95//31
f 95//31 122//31 96//31
f 96//31 122//31 97//31
f 97//31 122//31 98//31
f 98//31 122//31 99//31
f 99//31 122//31 100//31
f 100//32 122//32 101//32
f 101//32 122//32 102//32
f 102//32 122//32 103//32
f 104//33 103//33 122//33 230//33
f 231//34 6//34 106//34 232//34
f 107//29 2//29 233//29
f 3//1 108//1 112//1
f 234//34 109//34 6//34 231//34
f 109//1 235//1 113//1 110//1
f 111//1 3//1 112//1
f 113//1 235//1 114//1
f 235//1 236//1 115//1 114//1
f 115//1 236//1 116//1
f 116//1 236//1 117//1
f 237//1 118//1 117//1 236//1
f 238//1 119//1 118//1 237//1
f 227//1 120//1 119//1 238//1
f 26//31 122//31 105//31
f 122//1 121//1 226//1 239//1
f 126//1 153//1 152//1 127//1
f 127//1 152//1 151//1 128//1
f 128//1 151//1 150//1 129//1
f 149//1 130//1 129//1 150//1
f 148//1 131//1 130//1 149//1
f 131//1 148//1 147//1 132//1
f 146//1 133//1 132//1 147//1
f 133//1 146//1 145//1 134//1
f 134//1 145//1 144//1 135//1
f 135//1 144//1 143//1 136//1
f 136//1 143//1 142//1 137//1
f 137//1 142//1 141//1 138//1
f 140//1 139//1 138//1 141//1
f 169//1 196//1 195//1 170//1
f 170//1 195//1 194//1 171//1
f 171//1 194//1 193//1 172//1
f 192//1 173//1 172//1 193//1
f 191//1 174//1 173//1 192//1
f 174//1 191//1 190//1 175//1
f 189//1 176//1 175//1 190//1
f 176//1 189//1 188//1 177//1
f 177//1 188//1 187//1 178//1
f 178//1 187//1 186//1 179//1
f 179//1 186//1 185//1 180//1
f 180//1 185//1 184//1 181//1
f 183//1 182//1 181//1 184//1
f 228//28 240//28 241//28 212//28 211//28 210//28 209//28 208//28 207//28 206//28 205//28 204//28 203//28 202//28 201//28
f 212//28 241//28 214//28 213//28
f 214//1 241//1 215//1
f 215//1 241//1 216//1
f 216//1 241//1 217//1
f 241//1 242//1 218//1 217//1
f 242//1 243//1 219//1 218//1
f 219//1 243//1 220//1
f 243//1 244//1 221//1 220//1
f 221//1 244//1 222//1
f 222//1 244//1 223//1
f 223//1 244//1 224//1
f 224//1 244//1 245//1 225//1
f 225//1 245//1 239//1 226//1
f 227//35 238//35 228//35
f 246//5 2//5 229//5
f 230//32 122//32 247//32
f 233//5 2//5 248//5
f 249//36 235//36 109//36 234//36
f 250//37 236//37 235//37 251//37
f 252//38 237//38 236//38 253//38
f 254//39 238//39 237//39 255//39
f 256//32 122//32 239//32 257//32
f 228//1 258//1 240//1
f 241//28 240//28 259//28
f 242//1 241//1 260//1
f 261//40 243//40 242//40 262//40
f 263//41 244//41 243//41 264//41
f 265//42 245//42 244//42 266//42
f 267//43 239//43 245//43 265//43
f 228//35 238//35 268//35
f 269//29 2//29 246//29
f 247//33 122//33 270//33
f 248//5 2//5 269//5
f 271//36 235//36 249//36
f 253//38 236//38 250//38 272//38
f 251//37 235//37 271//37
f 255//39 237//39 252//39
f 273//44 238//44 254//44
f 274//33 122//33 256//33
f 257//33 239//33 275//33
f 258//45 228//45 268//45
f 276//1 240//1 258//1
f 259//1 260//1 241//1
f 259//46 240//46 260//46
f 277//47 242//47 260//47 278//47
f 264//40 243//40 261//40 279//40
f 262//48 242//48 277//48
f 280//41 244//41 263//41
f 266//42 244//42 280//42
f 275//43 239//43 267//43 281//43
f 282//49 268//49 238//49
f 270//32 122//32 283//32
f 284//39 238//39 273//39
f 283//32 122//32 274//32
f 258//50 268//50 276//50
f 276//51 285//51 240//51
f 286//46 260//46 240//46 287//46
f 278//52 260//52 288//52
f 289//53 290//53 282//53 238//53
f 268//49 282//49 291//49
f 292//39 238//39 284//39
f 276//50 268//50 285//50
f 240//54 285//54 293//54 287//54
f 294//18 295//18 296//18 297//18 298//18 286//18 287//18 293//18 299//18 300//18 301//18 290//18 289//18 302//18 303//18 304//18 305//18 306//18 307//18 308//18 309//18 310//18 311//18 312//18 313//18
f 298//48 260//48 286//48
f 288//47 260//47 314//47
f 289//35 238//35 302//35
f 301//55 315//55 282//55 290//55
f 316//28 268//28 291//28
f 282//56 315//56 291//56
f 317//57 238//57 292//57
f 268//28 316//28 285//28
f 293//46 285//46 315//46 299//46
f 318//48 260//48 295//48 294//48
f 295//47 260//47 296//47
f 296//48 260//48 297//48
f 297//47 260//47 298//47
f 299//58 315//58 300//58
f 300//55 315//55 301//55
f 302//35 238//35 303//35
f 303//35 238//35 304//35
f 304//35 238//35 305//35
f 305//35 238//35 306//35
f 306//35 238//35 307//35
f 307//59 238//59 308//59
f 308//39 238//39 309//39
f 309//44 238//44 310//44
f 310//39 238//39 311//39
f 311//39 238//39 312//39
f 313//44 312//44 238//44 319//44
f 314//47 260//47 320//47
f 316//18 291//18 315//18
f 319//39 238//39 317//39
f 316//60 315//60 285//60
f 321//48 260//48 318//48
f 320//48 260//48 321//48
f 232//61 106//61 22//61 23//61 107//61 233//61 248//61 269//61 246//61 229//61 80//61 104//61 230//61 247//61 270//61 283//61 274//61 256//61 257//61 275//61 281//61
f 281//18 267//18 265//18 266//18 280//18 263//18 264//18 279//18 272//18 250//18 251//18 271//18 249//18 234//18 231//18 232//18
f 279//62 261//62 262//62 277//62 278//62 288//62 314//62 320//62 321//62 318//62 294//62 313//62 319//62 317//62 292//62 284//62 273//62 254//62 255//62 252//62 253//62 272//62
